<svg xmlns="http://www.w3.org/2000/svg" viewBox="0 0 3024 3024"><filter id="a"><feGaussianBlur stdDeviation="12"/></filter><path fill="#8f918f" d="M0 0h3024v3024H0z"/><g filter="url(#a)" transform="translate(6 6) scale(11.8125)" fill-opacity=".5"><ellipse rx="1" ry="1" transform="matrix(68.96733 -38.7316 46.27933 82.40719 124.4 193.3)"/><ellipse fill="#f7ffff" cx="151" cy="53" rx="255" ry="71"/><ellipse fill="#120000" rx="1" ry="1" transform="rotate(-127.3 108.8 63.6) scale(107.16324 63.78333)"/><ellipse fill="#fff" rx="1" ry="1" transform="rotate(63.3 -183.1 139.3) scale(40.31117 35.21577)"/><ellipse fill="#fff" rx="1" ry="1" transform="matrix(-23.43205 -50.59845 21.73795 -10.0668 232.2 241.6)"/><ellipse fill="#956150" rx="1" ry="1" transform="matrix(-77.1162 -18.24674 6.72763 -28.43297 126.2 120.3)"/><ellipse fill="#deeff7" cx="18" cy="75" rx="28" ry="101"/><ellipse fill="#e1fdff" rx="1" ry="1" transform="rotate(-70.2 116.6 -39.1) scale(55.15496 9.88977)"/><ellipse fill="#cfdee3" cx="251" cy="124" rx="43" ry="255"/><ellipse cx="92" cy="239" rx="32" ry="98"/><ellipse fill="#252a26" rx="1" ry="1" transform="matrix(8.5551 -.76067 1.7826 20.04842 178.7 11)"/><path fill="#000200" d="M206 180l-46-23 36-33z"/><ellipse fill="#fff" cx="27" cy="255" rx="35" ry="35"/><ellipse fill="#deeaef" rx="1" ry="1" transform="matrix(-90.74243 -68.60568 27.83875 -36.82138 53.1 16.7)"/><path fill="#ff5245" d="M151.6 118.6l23 5.3-26.1 33.6-21.7-1.6z"/><ellipse fill="#757471" rx="1" ry="1" transform="rotate(117.4 51.3 163.2) scale(12.81386 44.87096)"/><ellipse fill="#0b1200" cx="136" cy="247" rx="71" ry="71"/><path fill="#f7ffff" d="M202.6 224l60.8-16.2 14 52.1-60.8 16.3z"/><ellipse fill="#303023" rx="1" ry="1" transform="rotate(-139.7 85.6 36.4) scale(18.29785 24.73845)"/><path fill="#0b0f01" d="M130.2 169.7L54.6 235l-14.8-88.7 10.1-25.8z"/></g></svg>