<?xml version="1.0" standalone="no"?>
<!DOCTYPE svg PUBLIC "-//W3C//DTD SVG 20010904//EN"
 "http://www.w3.org/TR/2001/REC-SVG-20010904/DTD/svg10.dtd">
<svg version="1.0" xmlns="http://www.w3.org/2000/svg"
 width="440.000000pt" height="252.000000pt" viewBox="0 0 440.000000 252.000000"
 preserveAspectRatio="xMidYMid meet">
<metadata>
Created by potrace 1.15, written by Peter Selinger 2001-2017
</metadata>
<g transform="translate(0.000000,252.000000) scale(1.000000,-1.000000)"
fill="#cccccc" stroke="none">
<path d="M80 249 c-2 -1 -8 -4 -12 -7 -4 -3 -8 -5 -9 -5 -1 0 -5 -3 -8 -6 -11
-10 -17 -13 -21 -12 -6 2 -11 -1 -12 -7 -1 -4 -5 -7 -7 -5 -1 0 -4 1 -6 1 l-4
0 0 -52 c0 -41 0 -52 1 -52 0 1 3 0 5 -2 4 -2 4 -3 3 -6 0 -3 -1 -5 -1 -6 -1
-1 -1 -6 -1 -9 0 -5 15 -17 22 -17 1 0 3 0 4 -1 1 -2 7 -4 11 -4 2 0 3 -1 4
-2 1 -3 1 -3 -2 -6 -3 -2 -3 -3 -2 -7 0 -3 1 -4 2 -4 1 0 1 -1 1 -3 0 -5 2
-11 5 -12 3 -1 4 -3 2 -3 -2 0 -1 -1 0 -3 2 -2 3 -4 4 -3 0 0 1 0 1 -1 0 -1
-1 -2 -1 -2 -1 -1 0 -1 1 -2 3 -1 7 -7 4 -7 -1 0 -1 0 1 -2 1 -1 5 -1 35 -2
18 0 35 0 36 1 3 0 11 7 13 12 1 1 3 4 5 6 2 2 4 5 5 6 1 2 5 2 5 0 1 0 2 -1
2 -1 4 0 11 -4 12 -6 0 -1 1 -2 2 -2 0 1 1 0 1 -1 1 -1 2 -1 3 -1 5 2 20 -6
22 -11 l2 -2 64 0 c35 0 65 0 65 1 0 0 -13 0 -29 0 -30 0 -32 0 -32 4 0 1 -1
2 -1 3 -1 0 -1 -1 -1 -3 1 -5 -1 -5 -1 -1 -1 2 -2 4 -2 4 -1 0 -1 0 -1 1 0 1
1 1 3 1 2 -1 4 0 6 0 1 1 1 1 0 1 -1 0 -2 0 -2 1 0 0 0 1 0 1 -1 3 -1 4 2 4 2
0 2 0 2 2 0 3 2 3 3 0 0 -1 1 -2 1 -1 1 0 2 -1 3 -2 1 -1 1 -1 1 0 0 2 4 5 4
3 0 -2 2 -1 5 3 3 2 5 3 5 2 2 -1 6 0 6 2 0 0 0 1 1 1 1 0 1 0 1 1 -2 2 3 8 7
8 1 0 2 1 2 2 0 1 1 1 5 1 2 0 6 0 7 0 1 0 2 -1 2 -1 0 -2 9 -8 10 -7 1 0 1
-2 0 -2 -1 0 0 -1 2 -2 2 -1 3 -2 3 -3 0 -1 0 -1 1 -1 0 1 1 0 2 -1 2 -1 2 -1
4 0 1 1 2 2 3 2 1 0 1 0 0 2 -1 0 -2 1 -3 1 0 -1 -1 0 -1 0 -1 1 -1 1 -2 0 -1
0 -2 0 -3 0 -2 1 -2 1 0 2 1 1 1 1 0 2 -2 1 -2 2 -1 2 0 0 1 0 1 1 0 2 0 2 2
1 2 -1 2 -1 2 2 1 2 2 3 3 3 1 1 1 1 0 2 0 1 -1 2 -1 3 0 0 0 2 -1 3 0 2 0 2
2 2 1 0 1 0 0 1 -2 0 0 6 3 5 1 0 1 0 -1 2 l-2 2 -1 -3 c0 -1 -1 -3 -1 -3 -1
-1 -1 0 -1 2 1 4 1 4 -1 4 -2 0 -2 0 -1 -2 0 -2 0 -2 -1 -1 -1 0 -2 1 -2 0 -1
0 -1 0 -1 1 0 1 0 2 1 2 1 0 1 1 1 2 0 0 1 1 2 1 0 0 1 -1 1 -1 0 -1 1 -1 2
-1 1 1 2 0 2 0 1 -1 1 -1 1 0 1 0 1 1 0 1 0 0 -1 1 0 2 0 1 0 1 -1 1 0 -1 -1
0 -2 1 -1 1 -2 1 -3 0 -1 -1 -1 -1 -2 2 0 3 0 3 -2 2 -1 -1 -2 -2 -2 -1 -1 0
-1 0 -1 -1 0 -1 1 -2 2 -1 1 0 2 0 1 -1 -1 0 -1 -1 0 -2 1 0 1 -2 1 -2 -1 -1
-1 -1 -2 1 l-1 2 -1 -2 c-1 -3 -3 -4 -2 -2 0 1 -1 2 -3 2 -3 0 -3 0 -2 -2 3
-1 3 -7 1 -6 -1 0 -3 0 -3 -1 -1 -1 -2 -1 -3 0 0 1 0 1 -1 0 -1 -1 -1 -1 -2
-1 0 1 0 2 2 3 2 2 2 3 -1 2 0 0 -1 -1 -1 -2 0 -1 0 -1 -1 0 -2 3 -5 2 -4 -3
0 -1 0 -1 -1 -1 -1 1 -1 2 -1 3 0 1 -1 2 -2 2 -1 -1 -2 -1 -2 -1 0 -1 0 -2 0
-3 0 0 0 -1 1 -1 0 1 1 0 3 0 1 -1 1 -1 0 -1 -2 0 -2 0 -1 -2 2 -2 -2 -1 -4 1
-1 2 -2 2 -4 1 -3 -1 -4 -3 -1 -2 1 0 2 0 2 -1 0 -1 1 -1 2 0 1 0 2 0 2 -1 0
-1 -1 -1 -1 -1 -1 0 -2 -1 -2 -2 0 -1 0 -1 -1 0 -2 3 -6 4 -6 2 0 -1 1 -2 2
-2 1 0 1 0 0 -1 -1 -1 -3 -1 -4 -1 -2 1 -2 0 -2 -2 0 -1 1 -2 1 -2 1 0 1 -1 0
-2 -2 -1 -2 -1 -3 0 0 1 -1 1 -1 0 -1 -1 -1 -1 0 -1 0 0 0 0 -1 -1 -2 -1 -6 1
-4 2 2 2 1 7 -1 9 -1 0 -2 1 -2 1 0 0 0 -1 -1 -2 0 -2 0 -4 0 -5 -1 -2 -2 -3
-3 0 0 1 0 1 -1 0 0 -1 -1 0 -1 3 -1 2 -2 5 -3 6 l-1 3 0 -3 c0 -2 0 -3 1 -3
1 -2 1 -6 0 -6 -1 0 -1 1 -1 2 0 1 0 2 -1 2 0 0 -1 2 -1 4 -1 4 -1 4 -3 2 -1
-2 -4 -3 -4 0 0 2 -3 1 -4 -2 0 -2 -1 -3 -2 -2 0 1 -1 1 -1 0 -1 -1 0 -1 0 -1
1 0 2 -1 2 -2 0 -1 0 -1 -2 1 -1 1 -2 1 -3 1 0 -1 0 -1 0 -1 1 0 0 -1 0 -1 -2
-3 -5 0 -5 3 1 2 0 3 -2 4 -3 1 -3 1 -2 2 1 1 2 3 3 5 0 2 1 3 2 4 1 0 1 1 0
1 0 0 -1 2 0 3 0 2 1 3 1 2 1 -1 1 -1 1 1 0 1 -1 3 -2 3 -2 1 -2 3 -2 4 1 1 0
2 -1 3 -1 1 -1 2 0 3 2 1 2 1 0 2 l-3 2 2 1 c3 2 5 4 2 4 -1 0 -1 2 0 2 1 1 0
1 -1 1 -2 0 -3 1 -3 2 0 0 0 1 1 0 1 0 1 1 1 2 0 2 0 3 1 3 1 0 1 -1 0 -2 0
-1 0 -1 1 -1 1 1 3 1 4 0 1 -1 1 -1 2 0 0 1 1 2 2 2 0 0 1 1 1 1 1 1 1 1 1 0
0 0 1 -1 2 -1 0 0 1 0 1 1 -1 1 2 1 4 0 1 -1 3 0 3 3 1 2 1 2 0 1 -1 -1 -2 -2
-3 -1 -2 0 -3 3 -1 3 2 0 1 1 -1 3 -1 1 -2 2 -2 2 0 2 3 1 4 0 2 -3 8 -3 8 -1
0 2 -1 2 -2 1 -2 0 -3 0 -3 2 -1 3 -3 4 -3 2 0 -1 -1 -1 -2 -1 -1 0 -2 0 -1 1
0 0 1 1 1 2 0 1 0 1 1 0 1 -1 1 -1 2 1 1 1 2 1 2 0 1 -1 1 -1 1 1 -1 3 0 3 2
3 2 0 3 1 1 3 -2 3 -6 3 -6 1 0 0 0 -1 1 -1 1 1 1 0 1 0 0 -1 -1 -2 -1 -1 -1
0 -2 0 -2 -1 0 -1 -2 -1 -6 -1 -7 0 -7 0 -8 3 -1 6 -1 6 -6 6 l-5 0 -1 -4 c0
-4 -1 -5 -3 -5 -2 0 -3 0 -3 0 0 0 2 8 4 17 2 9 4 16 3 17 0 1 2 1 5 1 l5 0
-3 2 c-3 1 -3 1 -4 0 0 -1 -2 -1 -3 -1 -1 0 -1 1 0 2 1 1 2 2 1 2 -1 1 -1 5 0
5 1 1 1 1 0 1 -1 0 -2 -1 -2 -1 0 -1 -1 -2 -2 -2 0 -1 -1 -1 -1 -2 1 -1 1 -1
0 -1 -1 0 -1 -1 -1 -2 1 -1 1 -1 0 -1 -2 1 -4 -1 -4 -2 0 -1 1 -1 1 0 1 0 2 1
3 1 1 0 1 0 1 -1 -3 -1 -2 -6 1 -5 1 0 2 0 1 -3 0 -2 -1 -2 -1 -1 0 1 -1 2 -2
2 -2 0 -2 1 -2 5 0 1 0 1 -1 0 -1 -1 -2 -6 -2 -25 l0 -8 -3 0 c-2 0 -3 1 -5 6
-2 5 -2 5 -4 3 -2 -1 -2 -1 -2 1 0 1 1 2 2 2 0 -1 1 0 1 0 0 1 -1 1 -2 2 -1 0
-2 1 -2 1 0 1 0 1 -1 1 0 -1 0 -3 0 -7 0 -7 -1 -9 -4 -9 -2 0 -2 0 -2 4 0 4
-1 7 -2 7 -1 0 -1 -1 -1 -3 0 -2 0 -2 -1 -1 -2 1 -2 1 -2 0 0 -1 -1 -2 -2 -2
0 0 -1 1 -1 2 1 3 -1 2 -3 -1 -2 -4 -5 -4 -4 -1 1 2 0 4 -1 5 l-2 3 -1 -4 c0
-2 0 -4 1 -4 0 0 0 -1 -1 -3 -2 -4 -6 -3 -6 2 0 2 -1 3 -2 4 -1 0 -2 1 -2 1 0
1 1 1 3 0 1 -1 1 0 1 6 0 5 0 7 -1 6 -2 0 -2 -5 0 -5 0 0 0 -1 -1 -1 -4 -1 -4
-1 -3 0 1 1 1 2 0 2 0 1 -1 0 -2 -1 -1 -1 -1 -1 -2 0 -1 2 -1 3 0 3 1 0 3 1 4
2 1 2 1 2 -1 3 -1 1 -2 2 -2 1 -1 0 -1 1 -1 2 0 1 0 1 -1 0 0 -2 -6 -1 -6 0 0
3 -3 4 -5 3 -4 -2 -2 -7 2 -9 3 -1 6 -3 7 -4 1 -2 2 -3 2 -2 0 0 1 -2 1 -4 -1
-9 -7 -13 -15 -11 -4 1 -4 2 -4 4 0 3 0 3 4 1 5 -1 8 0 8 4 0 3 -1 5 -7 7 -10
5 -7 20 5 20 1 0 3 -1 6 -3 4 -5 4 -5 3 1 0 4 0 5 1 3 1 -1 2 -2 3 -2 0 0 1 0
1 1 -1 1 -1 1 0 1 1 0 1 0 1 1 0 1 -1 1 -1 1 -1 -1 -2 -1 -2 0 0 1 1 2 3 1 1
-1 2 0 2 2 1 1 0 2 0 3 -1 0 -1 0 -1 -1 0 0 -1 -1 -2 0 -1 0 -1 0 0 -1 1 -1 1
-1 0 -1 0 0 -2 1 -2 2 -2 1 -4 1 -4 0 0 -1 -1 -1 -1 0 -1 0 -1 1 0 2 1 0 2 1
2 2 0 1 1 1 3 1 4 -1 5 1 1 2 -3 2 -4 4 -3 7 0 2 0 2 -1 1 -2 -1 -2 -1 -3 0
-2 2 -3 0 -4 -7 -1 -7 -1 -7 -3 -7 -3 -1 -3 -1 -1 11 1 8 2 8 4 8 1 -1 3 0 3
1 2 1 2 1 4 -1 2 -2 4 -2 3 1 0 1 0 2 1 2 1 0 1 1 1 1 -1 1 -1 2 0 2 1 1 2 -2
1 -3 -1 -1 0 -2 3 -2 4 -1 6 0 2 1 -4 1 -3 8 2 8 1 0 2 0 2 1 -1 0 -1 1 0 1 1
1 1 3 0 3 -1 0 -2 0 -2 1 0 1 4 1 4 -1 1 -1 1 -1 3 0 2 1 2 1 3 -1 2 -4 7 -5
7 -1 -1 2 -2 4 -2 2 0 -3 -2 -3 -3 0 -1 3 1 9 4 9 1 0 1 0 2 1 0 0 0 1 -1 1 0
0 -1 1 0 2 0 1 1 2 2 2 1 -1 1 -1 2 -1 0 0 0 -1 0 -2 0 -2 1 -2 6 -2 0 0 1 -1
1 -2 0 0 0 -1 1 -1 1 0 1 1 0 3 0 4 1 8 2 8 0 -1 0 -2 0 -4 l0 -3 2 3 c4 4 5
4 5 1 2 -5 2 -8 0 -7 0 0 -1 1 -1 2 0 0 0 1 -1 1 0 0 -1 -1 -1 -2 0 -1 1 -2 1
-2 1 0 1 -1 1 -2 0 -1 1 -1 1 -1 1 1 2 0 3 -1 0 -1 2 -2 3 -2 0 0 1 0 0 -1 0
-1 0 -2 1 -2 1 -1 1 -1 0 -2 -2 -1 -2 -3 0 -5 0 -1 1 -2 1 -3 0 0 -1 -1 -1 -1
-1 0 -2 0 -2 -1 0 -2 4 -1 5 2 0 2 2 3 2 1 0 -1 1 -1 2 0 3 2 4 0 1 -2 l-2 -2
9 0 c7 1 11 0 11 0 1 -1 2 -1 3 -1 0 0 1 -1 1 -1 0 -2 1 -1 2 1 5 4 10 2 10
-4 0 -2 -5 -8 -7 -8 0 0 0 0 0 0 0 -1 0 -1 0 -1 1 0 1 0 1 -1 -1 -1 -1 -1 0
-1 0 0 1 1 2 2 2 3 4 3 4 0 -1 -2 -1 -3 0 -2 1 0 2 -1 1 -3 0 -2 0 -3 1 -3 1
1 2 -1 2 -5 0 -3 0 -3 1 -1 1 1 1 1 1 -1 0 -2 0 -3 1 -2 0 1 1 2 4 2 l3 0 0
-5 c0 -3 0 -5 1 -5 1 0 1 0 1 1 -1 1 -1 1 0 1 1 0 1 -1 1 -2 0 -1 -1 -2 -2 -2
-1 0 -1 -1 -1 -2 1 0 1 -1 1 -2 0 0 1 0 1 0 1 0 2 -1 3 -1 0 -1 0 -1 -1 -1 -2
1 -2 0 -2 -2 -2 -8 0 -13 2 -8 0 1 0 3 -1 3 -1 1 -1 4 1 4 0 0 1 -1 1 -2 1 -1
1 4 1 11 l0 12 10 0 c9 0 9 0 9 -2 0 -2 -1 -3 -7 -3 l-6 0 0 -5 0 -4 5 0 c3 0
5 0 5 1 1 1 2 1 2 1 1 0 1 0 0 -1 0 -1 -1 -3 -1 -4 0 -2 0 -3 -1 -3 -1 0 -1 0
0 -1 0 -1 0 -1 -1 -1 -1 0 -1 0 -1 1 0 0 -2 1 -4 1 -2 0 -3 0 -3 -1 1 -1 1 -1
0 -1 0 0 -1 -2 -1 -4 1 -3 1 -4 4 -4 5 0 7 1 5 3 -2 2 1 3 3 2 1 -1 0 -2 -1
-2 -1 0 -1 -1 1 -2 1 -1 2 -2 1 -4 0 -2 -5 -5 -6 -3 0 1 -1 1 -1 0 -1 0 -1 -1
0 -2 0 -1 4 -1 4 0 1 1 1 1 1 0 0 -1 1 -1 2 1 3 2 5 2 5 0 0 -2 1 -2 3 -3 3 0
3 1 5 4 1 2 2 4 2 4 1 0 2 -2 1 -3 -1 -2 -1 -6 0 -6 1 0 1 1 1 2 0 2 1 3 1 4
1 1 2 2 2 4 1 2 1 3 2 3 0 -1 -1 -3 -1 -6 -2 -6 -1 -11 3 -11 1 0 1 0 0 2 -2
1 -2 2 1 3 1 0 2 0 2 0 0 -1 0 -1 1 -1 1 1 1 5 0 5 -1 0 -2 0 -3 -1 0 -1 -1
-1 -1 0 -1 1 0 2 2 2 3 1 3 1 1 3 0 2 -2 3 -2 2 -1 0 -1 0 -1 1 0 1 1 1 2 1 2
0 4 4 2 5 -1 1 -1 1 0 2 1 1 0 3 -2 1 -1 0 -1 1 -1 1 0 2 3 3 4 2 1 0 1 -1 0
-1 0 -1 0 -1 1 -1 0 0 0 -1 0 -3 0 -3 0 -3 1 -2 1 1 2 2 2 3 0 1 1 1 2 0 l3 0
-3 2 c-2 2 -3 4 0 4 0 0 1 1 1 1 0 1 1 1 2 0 1 -1 1 -1 0 2 0 2 0 2 1 1 2 -3
2 -4 1 -4 -1 0 -1 0 0 -1 1 -1 1 -2 0 -2 -1 0 -2 -1 -2 -2 0 -5 0 -5 -2 -4 -3
0 -7 -2 -5 -3 1 -1 1 -6 0 -7 -1 -1 -1 -3 0 -3 1 0 1 1 2 3 1 1 1 2 2 2 1 0 1
-1 0 -2 -1 -2 -1 -3 0 -3 0 0 1 1 1 2 1 0 2 1 3 1 0 0 1 -1 2 -1 0 -3 2 -2 2
0 0 1 0 1 1 0 0 -2 1 -3 1 -3 0 -2 -4 -1 -5 1 -2 1 -3 1 -3 0 0 -1 -1 -2 -1
-2 -1 0 -1 -1 -1 -2 1 -2 3 -1 3 1 0 1 0 1 1 0 2 -3 2 -6 1 -6 -4 0 -6 0 -6
-1 1 -1 0 -2 0 -3 -1 0 -1 -1 -1 -2 1 0 2 0 2 1 1 1 1 1 1 1 0 -1 0 -1 1 0 1
1 1 1 1 0 0 0 1 -1 2 -1 1 0 2 0 2 1 0 0 -1 1 -2 1 -1 0 -1 0 -2 1 0 0 0 1 1
1 1 0 1 -1 1 -1 0 -1 0 -1 1 0 1 1 2 2 1 2 0 0 0 1 1 1 1 1 1 1 1 0 0 -1 0 -1
1 -1 1 0 1 1 0 1 0 2 6 5 7 4 0 -1 -4 -5 -5 -5 -1 0 -1 -1 -1 -2 0 -1 1 -1 2
0 1 0 2 0 2 -1 -2 -2 0 -4 3 -4 2 0 3 0 2 -1 0 -1 0 -1 -1 -1 0 1 -1 0 -2 0
-1 -1 -1 -1 1 -1 2 0 2 0 1 -1 -1 -1 -3 -2 -5 -4 -2 -1 -3 -2 -3 -1 -1 1 -1 1
-1 0 0 -2 -2 -3 -3 -1 -1 1 -2 1 -2 1 -1 0 -1 0 -1 -1 0 -1 1 -1 2 -1 1 0 1 0
0 -1 -1 -1 -1 -1 0 -2 1 0 2 0 3 0 0 1 1 1 1 0 3 -2 5 -2 4 0 -1 3 1 6 4 7 5
2 6 1 5 -1 0 -2 -1 -3 -3 -1 -2 2 -4 -1 -4 -5 1 -4 1 -4 -1 -3 -2 0 -2 0 -2
-2 1 -2 1 -2 0 -1 -2 0 -2 0 -1 -1 0 -3 1 -2 4 1 5 4 6 5 7 5 1 0 1 1 1 2 0 0
0 1 1 1 2 -1 0 -5 -3 -8 -1 -1 -2 -2 -2 -3 1 0 5 2 6 3 1 1 1 1 2 1 0 -1 0 -2
-1 -3 -2 -1 -2 -2 -1 -2 1 0 1 0 1 -1 -1 -1 0 -4 1 -4 1 0 1 1 1 1 -1 1 0 2 2
3 2 0 3 1 3 0 0 0 -1 -1 -2 -1 -3 -1 -2 -4 1 -3 3 0 3 1 2 3 -1 4 -1 6 0 4 1
-1 1 -1 1 0 0 2 0 2 2 2 1 -1 2 -1 3 0 1 1 1 1 1 0 0 -1 0 -2 0 -2 2 0 8 3 8
3 1 1 1 1 1 0 0 -3 3 -2 3 0 0 2 0 2 1 1 0 -1 1 -2 2 -2 2 0 2 0 2 1 -1 1 0 2
0 2 1 0 1 0 0 1 0 1 -1 1 -2 1 0 -1 -1 -1 -1 0 -1 1 -2 1 -3 0 0 0 -1 0 -1 1
0 1 -1 1 -1 0 -1 0 -1 0 -1 1 1 1 0 3 -1 4 0 2 0 3 0 3 1 0 1 -1 2 -2 1 -3 5
-5 6 -3 1 1 1 1 -1 1 -1 0 -2 0 -2 1 0 0 1 1 2 1 1 0 2 -1 2 -1 0 -1 1 -1 1 0
2 2 3 1 3 -1 0 -1 0 -2 1 -1 2 0 2 0 0 -5 0 -1 -2 -3 -2 -2 -1 0 -1 0 -1 -1 0
0 0 -1 1 -1 0 0 1 -3 1 -6 1 -5 1 -6 2 -3 2 2 4 1 4 -2 -1 0 -1 -1 0 -1 1 0 1
1 1 2 0 1 1 2 3 3 2 1 3 0 0 -2 -1 -1 -1 -1 0 -1 1 0 1 -1 1 -2 -1 0 0 -1 0
-2 1 0 2 -1 1 -2 0 -1 -1 -1 -2 0 -1 1 -1 1 -1 -1 1 -2 1 -3 0 -3 0 0 -1 -1
-1 -2 -1 -1 -1 -2 -2 -2 -1 0 -1 1 -1 1 1 1 0 2 -2 3 -5 1 -5 1 -2 -1 1 -1 2
-2 1 -2 -1 0 -1 -1 -1 -1 1 -1 0 -2 0 -3 -2 -1 -4 2 -4 4 1 2 -1 3 -1 0 -1 -1
0 -3 2 -5 2 -2 3 -4 3 -5 -1 -2 -1 -3 -1 -4 0 -2 -2 -3 -4 -1 -1 1 -1 1 -1 0
0 -2 0 -2 -1 -1 -1 1 -1 1 -3 0 -1 -1 -1 -1 0 -1 1 0 3 -1 4 -2 1 -1 1 -1 2 0
0 0 1 1 2 1 1 0 2 1 3 5 1 3 2 4 4 5 1 0 2 1 3 3 0 2 0 2 1 0 1 -2 3 -3 3 -1
0 1 1 1 2 1 1 0 1 0 0 1 0 0 -1 1 0 2 0 1 0 2 -1 3 -3 1 -2 4 0 3 2 0 2 0 1 4
-2 4 -2 7 0 7 0 0 1 2 1 4 1 1 2 4 2 5 2 2 2 3 1 2 -1 0 -2 0 -2 1 0 1 0 2 0
3 0 0 0 0 1 0 1 0 2 5 2 55 l0 53 -6 1 c-4 0 -8 0 -9 0 -2 0 -3 0 -4 1 0 1 -1
1 -2 0 0 -1 -2 -1 -7 0 -3 1 -6 1 -6 0 -1 0 -1 1 -2 2 -1 1 -2 2 -2 2 0 -1 -4
-1 -8 -2 -3 0 -8 -1 -10 -2 -3 0 -5 -1 -6 -1 -1 0 -3 -1 -4 -1 -11 -5 -11 -5
-14 -1 -1 1 -3 2 -3 2 -1 0 -2 0 -2 1 0 1 -2 1 -4 0 -5 -1 -11 -1 -11 0 -1 13
-4 20 -9 22 -1 0 -4 2 -6 5 -5 5 -7 6 -10 5 -2 -1 -8 4 -8 7 0 1 -1 1 -2 1 -1
-1 -8 5 -9 9 -1 0 -2 1 -3 1 -1 0 -24 0 -51 0 -46 1 -50 1 -52 -1 -2 -1 -3 -2
-4 -2 -1 0 -2 -1 -3 -1 -1 -1 -2 -2 -2 -2 -1 0 -3 -1 -5 -3 -5 -3 -9 -2 -16 5
-5 5 -9 6 -8 3 0 -2 0 -2 -1 -2 -2 1 -2 0 -1 -2 0 -3 0 -3 -4 -3 -2 0 -4 0 -5
0 -2 0 -3 1 -4 3 -1 2 -3 4 -3 4 -1 -1 -6 0 -11 0 -20 2 -38 2 -43 -1z m4 -2
c0 -1 0 -2 1 -2 1 -1 1 0 1 0 0 2 2 4 4 3 1 -1 1 -4 -1 -4 -2 1 -3 0 -3 -4 0
-2 1 -4 2 -4 1 0 1 0 1 -1 -1 -1 -4 -1 -4 0 0 1 -1 2 -2 2 -2 0 -3 -1 -2 -2 0
0 0 -1 -1 -1 -1 0 -1 1 -2 3 0 3 -2 4 -2 2 0 -1 0 -2 -1 -2 -1 0 -1 -1 -1 -2
0 -3 -1 0 -2 4 0 4 1 4 4 5 0 0 1 1 1 2 1 1 1 1 2 0 1 -1 1 -1 3 1 2 2 3 2 2
0z m203 -3 c0 -1 0 -3 1 -3 1 -1 2 2 1 5 0 1 1 1 2 1 1 0 1 -1 1 -2 -1 -2 -1
-2 1 -2 3 0 2 -2 -1 -2 -3 -1 -3 -1 -2 -3 1 -2 2 -2 3 -1 0 1 2 2 3 2 1 -1 2
0 3 0 1 1 2 1 2 0 1 -1 -3 -5 -5 -5 -1 0 -1 0 -1 -1 0 -1 0 -1 1 -1 1 1 2 -1
1 -2 0 -1 -1 -2 0 -2 0 -1 -1 -1 -2 -2 -1 0 -2 -1 -2 -2 1 0 0 -1 -1 -1 -2 -1
-3 1 -1 3 2 1 1 6 -1 4 -1 0 -3 0 -4 -1 -2 0 -2 0 -1 1 2 2 3 4 1 4 -1 0 -1 1
-1 3 0 3 -2 5 -4 4 -1 -1 -1 -1 -1 0 0 0 1 1 2 2 2 1 2 1 2 0 0 -1 0 -2 1 -3
1 0 1 1 0 4 0 3 0 4 1 4 1 -1 1 -2 1 -4z m-9 -3 c0 -4 0 -5 1 -5 1 -1 2 -2 2
-3 0 -1 0 -1 1 -1 0 0 1 0 1 -1 0 0 -1 -1 -1 -1 -1 -1 -1 -1 0 -2 1 -2 1 -2
-1 -2 -2 0 -3 1 -3 1 0 1 0 1 -1 1 0 0 -1 -1 0 -3 0 -3 -1 -5 -2 -3 -1 1 -2 1
-2 1 0 -1 -1 0 -1 2 -1 3 -4 7 -4 5 0 -1 0 -2 -1 -2 -1 0 -1 1 -1 3 0 1 0 3
-1 4 -1 0 -1 1 0 3 1 2 1 2 2 1 1 -2 4 -6 5 -6 1 0 1 1 1 2 1 1 1 1 1 -1 0 -1
0 -2 1 -2 0 1 1 0 1 0 1 -1 1 -1 1 0 0 1 -1 3 -2 4 l-2 2 2 2 c1 0 2 2 2 3 0
1 0 2 1 2 1 0 1 -2 0 -4z m115 -40 c1 0 2 -1 3 0 1 0 2 -1 3 -1 0 -1 1 0 2 1
1 1 2 1 2 0 1 -1 2 -1 4 -1 1 0 2 0 2 -1 -1 -1 -1 -1 0 -1 0 0 1 0 2 1 0 1 4
0 5 -1 1 -1 4 -1 4 0 -1 0 1 1 3 0 3 0 5 0 6 0 1 0 1 0 0 -1 -1 -1 -2 -2 -2
-3 0 -3 -2 -2 -3 1 -1 2 -1 2 -1 0 0 -1 0 -2 -1 -2 -1 -2 -3 -12 -1 -13 1 -1
3 -1 3 0 0 1 1 1 2 0 1 -2 1 -2 2 -1 0 2 1 2 2 1 2 -2 1 -3 -1 -3 -1 1 -1 1
-1 -1 1 -3 1 -3 -1 -3 -2 0 -2 0 -2 1 1 1 0 2 -1 2 -1 1 -2 0 -2 0 0 -1 0 -1
1 -1 0 0 1 -1 1 -3 1 -2 1 -3 3 -3 1 0 1 0 1 -2 0 -2 0 -2 3 -2 1 0 3 1 3 1 0
1 1 0 1 -2 1 -2 2 -3 2 -4 1 0 1 -6 1 -12 0 -12 0 -12 -2 -11 -1 2 -1 2 0 3 0
0 1 1 1 1 0 2 -5 0 -6 -1 -1 -1 -1 -1 -1 0 0 1 -1 2 -2 2 -1 1 -1 2 -1 3 1 1
0 2 0 2 -1 1 -2 2 -2 4 0 3 0 3 -1 1 -2 -1 -2 -1 -3 0 -1 1 -2 3 -2 3 1 1 0 2
-1 3 -1 2 -1 2 0 3 0 0 1 1 1 2 0 1 1 2 2 3 1 1 1 1 0 1 -1 0 -2 -1 -3 -1 -2
-2 -5 -3 -5 -1 1 0 0 1 0 1 -1 0 -1 1 -1 2 0 1 0 1 -1 1 -1 0 -2 0 -2 1 2 2 0
3 -2 1 0 -1 -1 -1 -2 -1 0 1 1 2 3 4 1 2 2 3 2 4 -1 0 -2 0 -2 -1 -2 -3 -4 -2
-3 2 0 2 0 3 -1 2 0 0 -1 -1 -2 -1 -1 0 -1 0 0 1 0 1 1 3 0 4 0 2 1 3 2 1 1
-1 1 -1 1 -1 1 1 -1 5 -3 5 0 0 -1 1 -1 1 0 1 0 1 -1 0 -1 -1 -2 -1 -2 0 -1 1
-1 1 -2 1 0 -1 0 -1 1 -2 0 0 1 -1 1 -2 0 -1 0 -1 -2 0 -1 2 -1 2 -1 1 0 -1 0
-1 -1 0 -1 2 0 7 1 5 1 -1 1 -1 2 -1 1 2 -2 4 -5 3 -3 -1 -4 0 -1 2 2 2 2 2 0
2 -1 0 -1 0 -1 1 0 1 3 1 3 0z m-225 -9 c2 -1 1 -3 -2 -3 -4 -1 -3 -3 1 -3 5
0 5 0 3 -11 -1 -7 -2 -8 -4 -8 -2 0 -2 0 -2 2 1 1 1 5 2 8 0 6 0 6 -2 6 -1 0
-2 -3 -3 -11 -3 -11 -4 -13 -8 -13 -1 0 -2 1 -2 2 0 2 0 3 2 2 2 0 2 1 4 10 0
2 0 6 1 7 0 1 -1 2 -1 3 -2 0 -1 3 1 3 0 0 1 1 1 2 0 3 6 6 9 4z m-40 -6 c0 0
1 -1 1 -1 1 -1 1 -1 0 -2 -1 -1 -1 -1 0 -2 1 -1 2 -3 3 -5 0 -3 0 -3 -1 -2 -2
1 -6 0 -6 -2 0 0 -1 -1 -1 -1 -2 -1 -3 -6 -1 -7 1 0 2 0 3 1 0 1 1 1 1 0 1 -6
0 -9 -1 -5 -1 1 -2 2 -4 2 -2 0 -2 0 -1 -1 1 -1 1 -1 -1 -1 -1 -1 -1 -1 -1 -1
-1 0 -1 2 -2 3 -1 2 -2 3 -3 3 0 0 -1 0 -1 1 0 1 1 1 2 1 l2 0 -2 2 c-2 1 -3
2 0 4 0 1 1 2 1 3 0 0 0 1 0 3 0 1 0 1 1 -1 1 -2 1 -3 -1 -5 -1 -2 -1 -2 1 -4
1 0 2 -1 3 -1 1 0 1 0 0 1 -2 1 -2 1 0 3 0 1 1 2 1 3 -1 0 -1 2 0 3 1 2 1 2 2
-2 0 -4 0 -4 1 -2 2 4 2 14 0 14 0 1 -1 1 -1 2 0 1 1 0 3 -1 1 0 2 -2 2 -3z
m4 -30 c1 0 1 0 2 0 0 0 1 -1 1 -2 0 -1 0 -1 2 -1 1 0 2 0 2 1 0 3 1 3 3 1 1
-2 1 -2 -1 -4 -1 -1 -2 -2 -3 -2 -1 0 -2 -3 -2 -4 1 0 3 1 3 2 -1 0 0 1 1 1 2
1 2 0 2 -2 0 -4 2 -1 3 5 l1 6 4 0 4 0 4 -17 c5 -19 5 -18 2 -18 -3 0 -3 1 -4
5 -1 4 -1 4 -5 4 -5 0 -7 -2 -7 -7 0 -1 -1 -2 -2 -2 -2 0 -3 -1 -3 -2 l0 -2
-1 2 c0 3 -9 3 -9 0 0 -1 0 -1 -1 0 0 2 -1 2 -5 2 l-4 0 0 8 c0 6 0 8 -1 9 -1
1 -2 2 -2 2 0 1 1 1 2 0 0 0 1 0 1 1 0 1 0 1 -1 1 -1 0 -1 1 -1 2 0 0 0 1 -1
1 0 -1 -1 0 -1 1 -1 1 0 1 1 1 1 0 2 -1 2 -2 1 -1 1 0 1 2 0 2 0 3 -2 2 -1 0
-3 0 -4 1 -1 1 -1 1 1 1 1 0 3 1 4 3 2 3 7 3 7 0 0 -2 0 -2 1 -1 1 0 2 1 3 0
1 -1 2 -1 3 -1 2 0 1 2 -1 2 -1 1 -2 1 -2 2 0 1 1 1 1 0 1 0 2 -1 2 -1z m95
-42 c1 -1 0 -3 0 -4 -1 -2 -1 -2 0 -2 1 0 2 -1 1 -1 0 -1 0 -2 2 -2 1 0 7 -1
13 -1 7 0 12 -1 12 -1 -1 -2 -70 -2 -70 0 0 1 23 2 32 1 1 0 2 1 2 2 0 1 0 2
1 3 1 0 1 -1 1 -1 0 -1 1 -2 2 -2 1 0 1 1 1 1 -1 1 0 2 0 3 1 1 1 1 0 1 -2 -1
-2 -1 -1 3 1 2 1 2 2 1 1 -2 1 -2 1 0 -1 1 0 2 0 2 0 0 1 -1 1 -3z m12 -25 c0
-1 0 -2 1 -3 3 -1 4 -5 1 -5 -1 0 -1 0 0 -1 3 0 2 -2 -1 -3 -1 0 -2 -1 -2 -1
0 -3 0 -3 -1 -2 -1 1 -2 1 -3 -1 -1 -1 -2 -1 -2 0 0 0 -1 1 -2 1 -1 0 -2 0 -2
1 -1 1 0 1 2 1 2 0 2 0 1 1 -1 1 -2 2 -2 5 l0 4 -1 -4 c-1 -6 -2 -5 -2 0 0 4
0 5 -1 5 -1 0 -2 -1 -2 -5 0 -2 -1 -4 -1 -4 -1 0 -1 2 -1 5 0 3 0 4 -1 4 -1 0
-2 0 -2 1 0 1 2 1 5 1 4 0 5 0 5 -1 -1 -1 -1 -2 0 -2 0 0 1 1 1 1 1 1 1 1 2 0
2 -1 2 -1 2 0 0 2 1 3 4 3 1 0 2 -1 2 -1z m-4 -21 c1 0 1 0 1 1 -1 1 0 1 0 1
1 0 2 -1 2 -1 0 -1 0 -2 1 -2 1 0 1 1 1 2 0 4 5 -2 6 -7 0 -4 -3 -4 -3 0 l-1
4 0 -4 c0 -4 0 -4 -6 -3 -1 0 -1 1 -1 2 0 1 0 1 -1 0 -1 -4 -4 -4 -6 0 -2 3
-1 6 2 9 1 2 1 2 3 0 1 -1 2 -2 2 -2z M125 150 c0 -1 1 -2 1 -2 1 -1 1 -1 0
-1 0 0 -1 -1 -1 -2 0 -2 1 -3 1 -3 1 -1 1 -1 0 -2 -1 0 -1 -2 -1 -7 l0 -6 6 0
5 0 -1 3 c-2 2 -2 3 1 0 1 0 2 -2 1 -3 0 -1 0 -1 1 0 3 3 3 17 -1 17 -1 0 -1
-2 0 -2 1 0 1 -2 1 -3 l-1 -3 -2 2 c-2 1 -2 3 -2 4 0 1 0 1 -2 1 -2 -1 -2 0
-2 1 1 2 -1 7 -3 7 0 0 -1 -1 -1 -1z M266 153 c-1 -1 -2 -2 -1 -3 0 -1 0 -1
-1 0 -1 2 -2 1 -2 -2 2 -8 7 -24 8 -24 0 0 1 3 1 9 0 8 0 9 -2 9 -1 0 -1 0 -1
2 -1 3 0 3 2 3 2 -1 2 -1 2 2 0 1 0 2 -1 1 -1 0 -2 1 -3 1 0 1 -1 2 0 2 1 0 1
0 1 1 0 1 -1 1 -3 -1z M344 103 c0 -1 -1 -1 -2 -1 -1 0 -2 0 -2 -1 0 -1 1 -1
3 -1 3 1 4 1 4 -2 0 -3 0 -3 -2 -2 -1 2 -5 3 -5 1 0 0 1 -1 1 -1 1 -1 0 -1 -1
0 -3 0 -4 -2 -2 -4 1 0 1 -1 1 -2 -1 0 -1 0 -2 1 0 0 -1 1 -1 1 -1 0 -1 -1 -1
-1 0 -2 4 -4 7 -4 0 0 1 0 1 -1 0 -1 0 -1 -1 -1 -1 0 -1 -1 0 -2 0 -1 0 -2 -1
-2 -2 -2 -3 -6 -1 -6 0 0 1 0 1 1 0 0 1 1 3 1 2 0 3 -1 3 -2 0 -1 0 -2 1 -2 1
0 2 0 3 0 1 0 3 -1 3 -2 2 -1 2 -1 2 0 0 1 1 2 2 3 1 0 1 1 0 1 0 0 -1 1 -1 1
1 1 0 1 0 1 0 -1 -1 -1 -1 -1 -1 0 -1 1 0 2 2 2 2 3 1 3 -1 0 -1 -1 -1 -1 0
-1 -1 -2 -2 -2 -2 0 -2 0 0 2 1 1 1 3 1 5 1 4 2 5 3 3 1 -1 1 -1 1 0 0 1 1 2
1 2 1 1 1 1 -1 1 -2 0 -5 3 -4 4 1 0 2 0 2 -1 2 -2 3 -1 3 1 0 1 -1 2 -3 3 -2
1 -2 1 -2 -1 0 0 0 -1 -1 0 -1 0 -1 1 0 1 1 2 1 5 0 6 -1 0 -1 0 -1 -1 -1 -1
-2 -1 -2 0 -2 1 -7 1 -7 0z M402 43 c-1 -1 -1 -2 0 -2 0 0 1 -1 0 -2 0 0 0 -1
1 -1 2 0 1 -4 -2 -6 -2 -2 -5 0 -3 3 2 3 0 3 -3 0 -1 -2 -3 -3 -3 -2 -1 0 -2
-1 -4 -3 -1 -2 -2 -3 -3 -3 0 0 -1 -1 -1 -1 0 -1 0 -2 -1 -2 -1 0 -1 1 -1 1 0
2 -4 3 -7 1 -1 -1 -2 -2 -2 -3 0 -1 1 -1 2 1 2 3 3 1 1 -2 -2 -2 -2 -2 0 -2 4
-1 5 -1 5 1 0 1 1 1 3 0 3 0 3 0 3 2 -1 1 -1 2 0 2 1 0 1 -1 1 -1 0 -3 6 0 7
3 0 2 1 2 3 2 1 -1 3 0 4 1 1 1 3 2 4 3 3 0 4 2 2 2 -1 0 -1 0 -1 1 0 1 0 1 1
1 0 -1 2 0 2 1 2 2 2 2 0 2 -1 0 -2 0 -3 -1 -1 -1 -1 -1 -1 0 0 1 -1 2 -1 2
-1 0 -2 1 -2 2 0 1 -1 1 -1 0z"/>
</g>
</svg>
